# xmcd
#
# Track frame offsets: 
#        150
#        13871
#        24999
#        36449
#        52280
#        67377
#        81090
#        93058
#        106626
#        116133
#
# Disc length: 1693 seconds
#
# Revision: 0
# Processed by: cddbd v1.5.2PL0 Copyright (c) Steve Scherf et al.
# Submitted via: ExactAudioCopy v1.0b1
#
DISCID=83069b0a
DTITLE=Cottonwood - Camaraderie
DYEAR=1971
DGENRE=Country
TTITLE0=Cottonwood
TTITLE1=Thank You Mr.Man
TTITLE2=Passin' Through
TTITLE3=In My Life
TTITLE4=Red
TTITLE5=50 LBS Of Smile
TTITLE6=Now Is The Time
TTITLE7=Holdin' On
TTITLE8=Pacoy
TTITLE9=Mother Earth (I Love You)
EXTD=
EXTT0=
EXTT1=
EXTT2=
EXTT3=
EXTT4=
EXTT5=
EXTT6=
EXTT7=
EXTT8=
EXTT9=
PLAYORDER=
